<svg width="1034" height="272" viewBox="0 0 1034 272" fill="none" xmlns="http://www.w3.org/2000/svg">
<path d="M61.7714 62.7649H74.4643V66.9057H68.4262V95.9999H61.7714V62.7649Z" fill="white" fill-opacity="0.5"/>
<path d="M81.9926 83.5232L83.1331 66.9057H83.5151L84.6556 83.5232H81.9926ZM74.6229 95.9999H81.1385L81.7552 87.1736H84.893L85.5123 95.9999H92.0253L88.5546 62.7649H78.0936L74.6229 95.9999Z" fill="white" fill-opacity="0.5"/>
<path d="M101.554 84.3676V90.6333C101.554 91.4778 102.208 91.7229 102.59 91.7229C103.218 91.7229 103.654 91.2054 103.654 90.6333V82.8966C103.654 81.8614 103.463 80.7173 100.981 80.7173H98.2793V77.0669H101.09C102.972 77.0669 103.654 76.631 103.654 74.5878V67.9953C103.654 67.4233 103.218 66.9057 102.59 66.9057C102.208 66.9057 101.554 67.1236 101.554 67.9953V73.4164H94.896V68.7036C94.896 66.3881 95.1688 62.7649 99.8346 62.7649H105.346C110.012 62.7649 110.312 66.3881 110.312 68.7036V74.0158C110.312 77.6389 107.774 78.6196 105.783 78.5379V78.8648C110.257 78.7558 110.312 82.1883 110.312 83.3597V90.0612C110.312 92.404 110.012 95.9999 105.346 95.9999H99.8346C95.1688 95.9999 94.896 92.404 94.896 90.0612V84.3676H101.554Z" fill="white" fill-opacity="0.5"/>
<path d="M114.678 62.7649H130.094V95.9999H123.437V66.9057H121.336V95.9999H114.678V62.7649Z" fill="white" fill-opacity="0.5"/>
<path d="M141.118 81.0442V66.9057H141.991C142.7 66.9057 143.219 67.505 143.219 68.5674V79.3824C143.219 80.4448 142.7 81.0442 141.991 81.0442H141.118ZM134.46 95.9999H141.118V84.6946H144.938C149.576 84.6946 149.876 81.0986 149.876 78.7558V68.7036C149.876 66.3881 149.576 62.7649 144.938 62.7649H134.46V95.9999Z" fill="white" fill-opacity="0.5"/>
<path d="M163.001 90.6333C163.001 91.2054 162.564 91.7229 161.937 91.7229C161.555 91.7229 160.9 91.4778 160.9 90.6333V67.9953C160.9 67.1236 161.555 66.9057 161.937 66.9057C162.564 66.9057 163.001 67.4233 163.001 67.9953V90.6333ZM154.242 90.0612C154.242 92.404 154.543 95.9999 159.181 95.9999H164.72C169.358 95.9999 169.658 92.404 169.658 90.0612V68.7036C169.658 66.3881 169.358 62.7649 164.72 62.7649H159.181C154.543 62.7649 154.242 66.3881 154.242 68.7036V90.0612Z" fill="white" fill-opacity="0.5"/>
<path d="M191.323 62.7649H200V95.9999H193.342V75.1599H193.097L189.659 95.9999H184.338L180.928 75.1599H180.682V95.9999H174.025V62.7649H182.674L187.012 86.1384L191.323 62.7649Z" fill="white" fill-opacity="0.5"/>
<path d="M53.1468 17.3258C51.1086 8.41771 46.0009 1.1714 45.2969 0C44.1837 1.66175 40.1101 8.06357 38.0391 15.1464C35.7772 23.0738 35.4443 30.1022 36.2247 36.9944C36.9996 43.9138 39.9272 51.0239 39.9272 51.0239C41.4825 54.7288 43.8126 58.7333 45.3297 60.6947C47.5534 57.8071 52.6639 49.1987 54.2573 37.9751C55.1441 31.7095 55.1822 26.2339 53.1468 17.3258ZM45.2969 58.4609C44.2956 56.5812 42.7403 53.0126 42.593 47.4552C42.5548 42.1158 44.7021 37.512 45.3297 36.5585C45.889 37.512 47.7389 41.5165 47.9599 46.9921C48.11 52.3315 46.331 56.554 45.2969 58.4609ZM52.5547 32.445C52.4783 35.8502 52.0718 39.4461 51.5534 41.5982C51.7389 37.8934 51.2942 32.6902 50.4429 28.6039C49.5916 24.5449 47.1823 17.7344 45.2587 14.6016C43.4825 17.5982 41.2942 23.4824 40.1483 28.5767C38.9968 33.6709 38.9641 39.8548 38.9641 41.7072C38.6585 40.1544 37.8945 34.5699 38.1101 28.9853C38.2901 24.3814 39.3706 19.6141 39.9627 17.4348C42.2219 10.1612 44.7785 5.50284 45.2587 4.7673C45.7389 5.50284 48.9586 11.2509 50.6284 17.2713C52.2901 23.2917 52.6257 29.067 52.5547 32.445Z" fill="white" fill-opacity="0.5"/>
<path d="M48.7527 62.765H33.2576V73.1441C33.2713 73.1441 33.2822 73.1169 33.2958 73.1169C36.9465 69.4665 42.8674 69.4665 46.5208 73.1169C50.1715 76.7401 50.1715 82.6515 46.5208 86.3019C46.5045 86.3292 46.4881 86.3292 46.4717 86.3564C46.4526 86.3564 46.4335 86.3837 46.4171 86.4109C42.7746 90.0068 38.0161 91.8048 33.2576 91.8048C28.4773 91.8048 23.697 90.0068 20.0517 86.3564C13.6234 79.9546 12.8621 70.0113 17.7625 62.765C18.4228 61.7843 19.184 60.8581 20.0517 59.9863C23.697 56.3359 28.4773 54.538 33.2576 54.538V29.5845C14.8894 29.5845 0 44.4312 0 62.765C0 81.0987 14.8894 95.9728 33.2576 95.9728C42.8346 95.9728 51.4621 91.9137 57.5303 85.4574V62.765H48.7527Z" fill="white" fill-opacity="0.5"/>
<path d="M617.771 62.7649H630.464V66.9057H624.426V95.9999H617.771V62.7649Z" fill="white" fill-opacity="0.5"/>
<path d="M637.993 83.5232L639.133 66.9057H639.515L640.656 83.5232H637.993ZM630.623 95.9999H637.139L637.755 87.1736H640.893L641.512 95.9999H648.025L644.555 62.7649H634.094L630.623 95.9999Z" fill="white" fill-opacity="0.5"/>
<path d="M657.554 84.3676V90.6333C657.554 91.4778 658.208 91.7229 658.59 91.7229C659.218 91.7229 659.654 91.2054 659.654 90.6333V82.8966C659.654 81.8614 659.463 80.7173 656.981 80.7173H654.279V77.0669H657.09C658.972 77.0669 659.654 76.631 659.654 74.5878V67.9953C659.654 67.4233 659.218 66.9057 658.59 66.9057C658.208 66.9057 657.554 67.1236 657.554 67.9953V73.4164H650.896V68.7036C650.896 66.3881 651.169 62.7649 655.835 62.7649H661.346C666.012 62.7649 666.312 66.3881 666.312 68.7036V74.0158C666.312 77.6389 663.774 78.6196 661.783 78.5379V78.8648C666.257 78.7558 666.312 82.1883 666.312 83.3597V90.0612C666.312 92.404 666.012 95.9999 661.346 95.9999H655.835C651.169 95.9999 650.896 92.404 650.896 90.0612V84.3676H657.554Z" fill="white" fill-opacity="0.5"/>
<path d="M670.678 62.7649H686.094V95.9999H679.437V66.9057H677.336V95.9999H670.678V62.7649Z" fill="white" fill-opacity="0.5"/>
<path d="M697.118 81.0442V66.9057H697.991C698.7 66.9057 699.219 67.505 699.219 68.5674V79.3824C699.219 80.4448 698.7 81.0442 697.991 81.0442H697.118ZM690.46 95.9999H697.118V84.6946H700.938C705.576 84.6946 705.876 81.0986 705.876 78.7558V68.7036C705.876 66.3881 705.576 62.7649 700.938 62.7649H690.46V95.9999Z" fill="white" fill-opacity="0.5"/>
<path d="M719.001 90.6333C719.001 91.2054 718.564 91.7229 717.937 91.7229C717.555 91.7229 716.9 91.4778 716.9 90.6333V67.9953C716.9 67.1236 717.555 66.9057 717.937 66.9057C718.564 66.9057 719.001 67.4233 719.001 67.9953V90.6333ZM710.242 90.0612C710.242 92.404 710.543 95.9999 715.181 95.9999H720.72C725.358 95.9999 725.658 92.404 725.658 90.0612V68.7036C725.658 66.3881 725.358 62.7649 720.72 62.7649H715.181C710.543 62.7649 710.242 66.3881 710.242 68.7036V90.0612Z" fill="white" fill-opacity="0.5"/>
<path d="M747.323 62.7649H756V95.9999H749.342V75.1599H749.097L745.659 95.9999H740.338L736.928 75.1599H736.682V95.9999H730.025V62.7649H738.674L743.012 86.1384L747.323 62.7649Z" fill="white" fill-opacity="0.5"/>
<path d="M609.147 17.3258C607.109 8.41771 602.001 1.1714 601.297 0C600.184 1.66175 596.11 8.06357 594.039 15.1464C591.777 23.0738 591.444 30.1022 592.225 36.9944C593 43.9138 595.927 51.0239 595.927 51.0239C597.482 54.7288 599.813 58.7333 601.33 60.6947C603.553 57.8071 608.664 49.1987 610.257 37.9751C611.144 31.7095 611.182 26.2339 609.147 17.3258ZM601.297 58.4609C600.296 56.5812 598.74 53.0126 598.593 47.4552C598.555 42.1158 600.702 37.512 601.33 36.5585C601.889 37.512 603.739 41.5165 603.96 46.9921C604.11 52.3315 602.331 56.554 601.297 58.4609ZM608.555 32.445C608.478 35.8502 608.072 39.4461 607.553 41.5982C607.739 37.8934 607.294 32.6902 606.443 28.6039C605.592 24.5449 603.182 17.7344 601.259 14.6016C599.482 17.5982 597.294 23.4824 596.148 28.5767C594.997 33.6709 594.964 39.8548 594.964 41.7072C594.658 40.1544 593.895 34.5699 594.11 28.9853C594.29 24.3814 595.371 19.6141 595.963 17.4348C598.222 10.1612 600.779 5.50284 601.259 4.7673C601.739 5.50284 604.959 11.2509 606.628 17.2713C608.29 23.2917 608.626 29.067 608.555 32.445Z" fill="white" fill-opacity="0.5"/>
<path d="M604.753 62.765H589.258V73.1441C589.271 73.1441 589.282 73.1169 589.296 73.1169C592.947 69.4665 598.867 69.4665 602.521 73.1169C606.172 76.7401 606.172 82.6515 602.521 86.3019C602.504 86.3292 602.488 86.3292 602.472 86.3564C602.453 86.3564 602.434 86.3837 602.417 86.4109C598.775 90.0068 594.016 91.8048 589.258 91.8048C584.477 91.8048 579.697 90.0068 576.052 86.3564C569.623 79.9546 568.862 70.0113 573.762 62.765C574.423 61.7843 575.184 60.8581 576.052 59.9863C579.697 56.3359 584.477 54.538 589.258 54.538V29.5845C570.889 29.5845 556 44.4312 556 62.765C556 81.0987 570.889 95.9728 589.258 95.9728C598.835 95.9728 607.462 91.9137 613.53 85.4574V62.765H604.753Z" fill="white" fill-opacity="0.5"/>
<path d="M339.771 62.7649H352.464V66.9057H346.426V95.9999H339.771V62.7649Z" fill="white" fill-opacity="0.5"/>
<path d="M359.993 83.5232L361.133 66.9057H361.515L362.656 83.5232H359.993ZM352.623 95.9999H359.139L359.755 87.1736H362.893L363.512 95.9999H370.025L366.555 62.7649H356.094L352.623 95.9999Z" fill="white" fill-opacity="0.5"/>
<path d="M379.554 84.3676V90.6333C379.554 91.4778 380.208 91.7229 380.59 91.7229C381.218 91.7229 381.654 91.2054 381.654 90.6333V82.8966C381.654 81.8614 381.463 80.7173 378.981 80.7173H376.279V77.0669H379.09C380.972 77.0669 381.654 76.631 381.654 74.5878V67.9953C381.654 67.4233 381.218 66.9057 380.59 66.9057C380.208 66.9057 379.554 67.1236 379.554 67.9953V73.4164H372.896V68.7036C372.896 66.3881 373.169 62.7649 377.835 62.7649H383.346C388.012 62.7649 388.312 66.3881 388.312 68.7036V74.0158C388.312 77.6389 385.774 78.6196 383.783 78.5379V78.8648C388.257 78.7558 388.312 82.1883 388.312 83.3597V90.0612C388.312 92.404 388.012 95.9999 383.346 95.9999H377.835C373.169 95.9999 372.896 92.404 372.896 90.0612V84.3676H379.554Z" fill="white" fill-opacity="0.5"/>
<path d="M392.678 62.7649H408.094V95.9999H401.437V66.9057H399.336V95.9999H392.678V62.7649Z" fill="white" fill-opacity="0.5"/>
<path d="M419.118 81.0442V66.9057H419.991C420.7 66.9057 421.219 67.505 421.219 68.5674V79.3824C421.219 80.4448 420.7 81.0442 419.991 81.0442H419.118ZM412.46 95.9999H419.118V84.6946H422.938C427.576 84.6946 427.876 81.0986 427.876 78.7558V68.7036C427.876 66.3881 427.576 62.7649 422.938 62.7649H412.46V95.9999Z" fill="white" fill-opacity="0.5"/>
<path d="M441.001 90.6333C441.001 91.2054 440.564 91.7229 439.937 91.7229C439.555 91.7229 438.9 91.4778 438.9 90.6333V67.9953C438.9 67.1236 439.555 66.9057 439.937 66.9057C440.564 66.9057 441.001 67.4233 441.001 67.9953V90.6333ZM432.242 90.0612C432.242 92.404 432.543 95.9999 437.181 95.9999H442.72C447.358 95.9999 447.658 92.404 447.658 90.0612V68.7036C447.658 66.3881 447.358 62.7649 442.72 62.7649H437.181C432.543 62.7649 432.242 66.3881 432.242 68.7036V90.0612Z" fill="white" fill-opacity="0.5"/>
<path d="M469.323 62.7649H478V95.9999H471.342V75.1599H471.097L467.659 95.9999H462.338L458.928 75.1599H458.682V95.9999H452.025V62.7649H460.674L465.012 86.1384L469.323 62.7649Z" fill="white" fill-opacity="0.5"/>
<path d="M331.147 17.3258C329.108 8.41771 324.001 1.1714 323.297 0C322.184 1.66175 318.11 8.06357 316.039 15.1464C313.777 23.0738 313.444 30.1022 314.225 36.9944C314.999 43.9138 317.927 51.0239 317.927 51.0239C319.482 54.7288 321.812 58.7333 323.33 60.6947C325.553 57.8071 330.664 49.1987 332.257 37.9751C333.144 31.7095 333.182 26.2339 331.147 17.3258ZM323.297 58.4609C322.295 56.5812 320.74 53.0126 320.593 47.4552C320.555 42.1158 322.702 37.512 323.33 36.5585C323.889 37.512 325.739 41.5165 325.96 46.9921C326.11 52.3315 324.331 56.554 323.297 58.4609ZM330.555 32.445C330.478 35.8502 330.072 39.4461 329.553 41.5982C329.739 37.8934 329.294 32.6902 328.443 28.6039C327.591 24.5449 325.182 17.7344 323.259 14.6016C321.482 17.5982 319.294 23.4824 318.148 28.5767C316.997 33.6709 316.964 39.8548 316.964 41.7072C316.658 40.1544 315.894 34.5699 316.11 28.9853C316.29 24.3814 317.37 19.6141 317.963 17.4348C320.222 10.1612 322.778 5.50284 323.259 4.7673C323.739 5.50284 326.958 11.2509 328.628 17.2713C330.29 23.2917 330.626 29.067 330.555 32.445Z" fill="white" fill-opacity="0.5"/>
<path d="M326.753 62.765H311.258V73.1441C311.271 73.1441 311.282 73.1169 311.296 73.1169C314.947 69.4665 320.867 69.4665 324.521 73.1169C328.172 76.7401 328.172 82.6515 324.521 86.3019C324.504 86.3292 324.488 86.3292 324.472 86.3564C324.453 86.3564 324.434 86.3837 324.417 86.4109C320.775 90.0068 316.016 91.8048 311.258 91.8048C306.477 91.8048 301.697 90.0068 298.052 86.3564C291.623 79.9546 290.862 70.0113 295.762 62.765C296.423 61.7843 297.184 60.8581 298.052 59.9863C301.697 56.3359 306.477 54.538 311.258 54.538V29.5845C292.889 29.5845 278 44.4312 278 62.765C278 81.0987 292.889 95.9728 311.258 95.9728C320.835 95.9728 329.462 91.9137 335.53 85.4574V62.765H326.753Z" fill="white" fill-opacity="0.5"/>
<path d="M895.771 62.7649H908.464V66.9057H902.426V95.9999H895.771V62.7649Z" fill="white" fill-opacity="0.5"/>
<path d="M915.993 83.5232L917.133 66.9057H917.515L918.656 83.5232H915.993ZM908.623 95.9999H915.139L915.755 87.1736H918.893L919.512 95.9999H926.025L922.555 62.7649H912.094L908.623 95.9999Z" fill="white" fill-opacity="0.5"/>
<path d="M935.554 84.3676V90.6333C935.554 91.4778 936.208 91.7229 936.59 91.7229C937.218 91.7229 937.654 91.2054 937.654 90.6333V82.8966C937.654 81.8614 937.463 80.7173 934.981 80.7173H932.279V77.0669H935.09C936.972 77.0669 937.654 76.631 937.654 74.5878V67.9953C937.654 67.4233 937.218 66.9057 936.59 66.9057C936.208 66.9057 935.554 67.1236 935.554 67.9953V73.4164H928.896V68.7036C928.896 66.3881 929.169 62.7649 933.835 62.7649H939.346C944.012 62.7649 944.312 66.3881 944.312 68.7036V74.0158C944.312 77.6389 941.774 78.6196 939.783 78.5379V78.8648C944.257 78.7558 944.312 82.1883 944.312 83.3597V90.0612C944.312 92.404 944.012 95.9999 939.346 95.9999H933.835C929.169 95.9999 928.896 92.404 928.896 90.0612V84.3676H935.554Z" fill="white" fill-opacity="0.5"/>
<path d="M948.678 62.7649H964.094V95.9999H957.437V66.9057H955.336V95.9999H948.678V62.7649Z" fill="white" fill-opacity="0.5"/>
<path d="M975.118 81.0442V66.9057H975.991C976.7 66.9057 977.219 67.505 977.219 68.5674V79.3824C977.219 80.4448 976.7 81.0442 975.991 81.0442H975.118ZM968.46 95.9999H975.118V84.6946H978.938C983.576 84.6946 983.876 81.0986 983.876 78.7558V68.7036C983.876 66.3881 983.576 62.7649 978.938 62.7649H968.46V95.9999Z" fill="white" fill-opacity="0.5"/>
<path d="M997.001 90.6333C997.001 91.2054 996.564 91.7229 995.937 91.7229C995.555 91.7229 994.9 91.4778 994.9 90.6333V67.9953C994.9 67.1236 995.555 66.9057 995.937 66.9057C996.564 66.9057 997.001 67.4233 997.001 67.9953V90.6333ZM988.242 90.0612C988.242 92.404 988.543 95.9999 993.181 95.9999H998.72C1003.36 95.9999 1003.66 92.404 1003.66 90.0612V68.7036C1003.66 66.3881 1003.36 62.7649 998.72 62.7649H993.181C988.543 62.7649 988.242 66.3881 988.242 68.7036V90.0612Z" fill="white" fill-opacity="0.5"/>
<path d="M1025.32 62.7649H1034V95.9999H1027.34V75.1599H1027.1L1023.66 95.9999H1018.34L1014.93 75.1599H1014.68V95.9999H1008.02V62.7649H1016.67L1021.01 86.1384L1025.32 62.7649Z" fill="white" fill-opacity="0.5"/>
<path d="M887.147 17.3258C885.109 8.41771 880.001 1.1714 879.297 0C878.184 1.66175 874.11 8.06357 872.039 15.1464C869.777 23.0738 869.444 30.1022 870.225 36.9944C871 43.9138 873.927 51.0239 873.927 51.0239C875.482 54.7288 877.813 58.7333 879.33 60.6947C881.553 57.8071 886.664 49.1987 888.257 37.9751C889.144 31.7095 889.182 26.2339 887.147 17.3258ZM879.297 58.4609C878.296 56.5812 876.74 53.0126 876.593 47.4552C876.555 42.1158 878.702 37.512 879.33 36.5585C879.889 37.512 881.739 41.5165 881.96 46.9921C882.11 52.3315 880.331 56.554 879.297 58.4609ZM886.555 32.445C886.478 35.8502 886.072 39.4461 885.553 41.5982C885.739 37.8934 885.294 32.6902 884.443 28.6039C883.592 24.5449 881.182 17.7344 879.259 14.6016C877.482 17.5982 875.294 23.4824 874.148 28.5767C872.997 33.6709 872.964 39.8548 872.964 41.7072C872.658 40.1544 871.895 34.5699 872.11 28.9853C872.29 24.3814 873.371 19.6141 873.963 17.4348C876.222 10.1612 878.779 5.50284 879.259 4.7673C879.739 5.50284 882.959 11.2509 884.628 17.2713C886.29 23.2917 886.626 29.067 886.555 32.445Z" fill="white" fill-opacity="0.5"/>
<path d="M882.753 62.765H867.258V73.1441C867.271 73.1441 867.282 73.1169 867.296 73.1169C870.947 69.4665 876.867 69.4665 880.521 73.1169C884.172 76.7401 884.172 82.6515 880.521 86.3019C880.504 86.3292 880.488 86.3292 880.472 86.3564C880.453 86.3564 880.434 86.3837 880.417 86.4109C876.775 90.0068 872.016 91.8048 867.258 91.8048C862.477 91.8048 857.697 90.0068 854.052 86.3564C847.623 79.9546 846.862 70.0113 851.762 62.765C852.423 61.7843 853.184 60.8581 854.052 59.9863C857.697 56.3359 862.477 54.538 867.258 54.538V29.5845C848.889 29.5845 834 44.4312 834 62.765C834 81.0987 848.889 95.9728 867.258 95.9728C876.835 95.9728 885.462 91.9137 891.53 85.4574V62.765H882.753Z" fill="white" fill-opacity="0.5"/>
<path d="M61.7714 238.765H74.4643V242.906H68.4262V272H61.7714V238.765Z" fill="white" fill-opacity="0.5"/>
<path d="M81.9926 259.523L83.1331 242.906H83.5151L84.6556 259.523H81.9926ZM74.6229 272H81.1385L81.7552 263.174H84.893L85.5123 272H92.0253L88.5546 238.765H78.0936L74.6229 272Z" fill="white" fill-opacity="0.5"/>
<path d="M101.554 260.368V266.633C101.554 267.478 102.208 267.723 102.59 267.723C103.218 267.723 103.654 267.205 103.654 266.633V258.897C103.654 257.861 103.463 256.717 100.981 256.717H98.2793V253.067H101.09C102.972 253.067 103.654 252.631 103.654 250.588V243.995C103.654 243.423 103.218 242.906 102.59 242.906C102.208 242.906 101.554 243.124 101.554 243.995V249.416H94.896V244.704C94.896 242.388 95.1688 238.765 99.8346 238.765H105.346C110.012 238.765 110.312 242.388 110.312 244.704V250.016C110.312 253.639 107.774 254.62 105.783 254.538V254.865C110.257 254.756 110.312 258.188 110.312 259.36V266.061C110.312 268.404 110.012 272 105.346 272H99.8346C95.1688 272 94.896 268.404 94.896 266.061V260.368H101.554Z" fill="white" fill-opacity="0.5"/>
<path d="M114.678 238.765H130.094V272H123.437V242.906H121.336V272H114.678V238.765Z" fill="white" fill-opacity="0.5"/>
<path d="M141.118 257.044V242.906H141.991C142.7 242.906 143.219 243.505 143.219 244.567V255.382C143.219 256.445 142.7 257.044 141.991 257.044H141.118ZM134.46 272H141.118V260.695H144.938C149.576 260.695 149.876 257.099 149.876 254.756V244.704C149.876 242.388 149.576 238.765 144.938 238.765H134.46V272Z" fill="white" fill-opacity="0.5"/>
<path d="M163.001 266.633C163.001 267.205 162.564 267.723 161.937 267.723C161.555 267.723 160.9 267.478 160.9 266.633V243.995C160.9 243.124 161.555 242.906 161.937 242.906C162.564 242.906 163.001 243.423 163.001 243.995V266.633ZM154.242 266.061C154.242 268.404 154.543 272 159.181 272H164.72C169.358 272 169.658 268.404 169.658 266.061V244.704C169.658 242.388 169.358 238.765 164.72 238.765H159.181C154.543 238.765 154.242 242.388 154.242 244.704V266.061Z" fill="white" fill-opacity="0.5"/>
<path d="M191.323 238.765H200V272H193.342V251.16H193.097L189.659 272H184.338L180.928 251.16H180.682V272H174.025V238.765H182.674L187.012 262.138L191.323 238.765Z" fill="white" fill-opacity="0.5"/>
<path d="M53.1468 193.326C51.1086 184.418 46.0009 177.171 45.2969 176C44.1837 177.662 40.1101 184.064 38.0391 191.146C35.7772 199.074 35.4443 206.102 36.2247 212.994C36.9996 219.914 39.9272 227.024 39.9272 227.024C41.4825 230.729 43.8126 234.733 45.3297 236.695C47.5534 233.807 52.6639 225.199 54.2573 213.975C55.1441 207.709 55.1822 202.234 53.1468 193.326ZM45.2969 234.461C44.2956 232.581 42.7403 229.013 42.593 223.455C42.5548 218.116 44.7021 213.512 45.3297 212.559C45.889 213.512 47.7389 217.517 47.9599 222.992C48.11 228.332 46.331 232.554 45.2969 234.461ZM52.5547 208.445C52.4783 211.85 52.0718 215.446 51.5534 217.598C51.7389 213.893 51.2942 208.69 50.4429 204.604C49.5916 200.545 47.1823 193.734 45.2587 190.602C43.4825 193.598 41.2942 199.482 40.1483 204.577C38.9968 209.671 38.9641 215.855 38.9641 217.707C38.6585 216.154 37.8945 210.57 38.1101 204.985C38.2901 200.381 39.3706 195.614 39.9627 193.435C42.2219 186.161 44.7785 181.503 45.2587 180.767C45.7389 181.503 48.9586 187.251 50.6284 193.271C52.2901 199.292 52.6257 205.067 52.5547 208.445Z" fill="white" fill-opacity="0.5"/>
<path d="M48.7527 238.765H33.2576V249.144C33.2713 249.144 33.2822 249.117 33.2958 249.117C36.9465 245.466 42.8674 245.466 46.5208 249.117C50.1715 252.74 50.1715 258.652 46.5208 262.302C46.5045 262.329 46.4881 262.329 46.4717 262.356C46.4526 262.356 46.4335 262.384 46.4171 262.411C42.7746 266.007 38.0161 267.805 33.2576 267.805C28.4773 267.805 23.697 266.007 20.0517 262.356C13.6234 255.955 12.8621 246.011 17.7625 238.765C18.4228 237.784 19.184 236.858 20.0517 235.986C23.697 232.336 28.4773 230.538 33.2576 230.538V205.584C14.8894 205.584 0 220.431 0 238.765C0 257.099 14.8894 271.973 33.2576 271.973C42.8346 271.973 51.4621 267.914 57.5303 261.457V238.765H48.7527Z" fill="white" fill-opacity="0.5"/>
<path d="M617.771 238.765H630.464V242.906H624.426V272H617.771V238.765Z" fill="white" fill-opacity="0.5"/>
<path d="M637.993 259.523L639.133 242.906H639.515L640.656 259.523H637.993ZM630.623 272H637.139L637.755 263.174H640.893L641.512 272H648.025L644.555 238.765H634.094L630.623 272Z" fill="white" fill-opacity="0.5"/>
<path d="M657.554 260.368V266.633C657.554 267.478 658.208 267.723 658.59 267.723C659.218 267.723 659.654 267.205 659.654 266.633V258.897C659.654 257.861 659.463 256.717 656.981 256.717H654.279V253.067H657.09C658.972 253.067 659.654 252.631 659.654 250.588V243.995C659.654 243.423 659.218 242.906 658.59 242.906C658.208 242.906 657.554 243.124 657.554 243.995V249.416H650.896V244.704C650.896 242.388 651.169 238.765 655.835 238.765H661.346C666.012 238.765 666.312 242.388 666.312 244.704V250.016C666.312 253.639 663.774 254.62 661.783 254.538V254.865C666.257 254.756 666.312 258.188 666.312 259.36V266.061C666.312 268.404 666.012 272 661.346 272H655.835C651.169 272 650.896 268.404 650.896 266.061V260.368H657.554Z" fill="white" fill-opacity="0.5"/>
<path d="M670.678 238.765H686.094V272H679.437V242.906H677.336V272H670.678V238.765Z" fill="white" fill-opacity="0.5"/>
<path d="M697.118 257.044V242.906H697.991C698.7 242.906 699.219 243.505 699.219 244.567V255.382C699.219 256.445 698.7 257.044 697.991 257.044H697.118ZM690.46 272H697.118V260.695H700.938C705.576 260.695 705.876 257.099 705.876 254.756V244.704C705.876 242.388 705.576 238.765 700.938 238.765H690.46V272Z" fill="white" fill-opacity="0.5"/>
<path d="M719.001 266.633C719.001 267.205 718.564 267.723 717.937 267.723C717.555 267.723 716.9 267.478 716.9 266.633V243.995C716.9 243.124 717.555 242.906 717.937 242.906C718.564 242.906 719.001 243.423 719.001 243.995V266.633ZM710.242 266.061C710.242 268.404 710.543 272 715.181 272H720.72C725.358 272 725.658 268.404 725.658 266.061V244.704C725.658 242.388 725.358 238.765 720.72 238.765H715.181C710.543 238.765 710.242 242.388 710.242 244.704V266.061Z" fill="white" fill-opacity="0.5"/>
<path d="M747.323 238.765H756V272H749.342V251.16H749.097L745.659 272H740.338L736.928 251.16H736.682V272H730.025V238.765H738.674L743.012 262.138L747.323 238.765Z" fill="white" fill-opacity="0.5"/>
<path d="M609.147 193.326C607.109 184.418 602.001 177.171 601.297 176C600.184 177.662 596.11 184.064 594.039 191.146C591.777 199.074 591.444 206.102 592.225 212.994C593 219.914 595.927 227.024 595.927 227.024C597.482 230.729 599.813 234.733 601.33 236.695C603.553 233.807 608.664 225.199 610.257 213.975C611.144 207.709 611.182 202.234 609.147 193.326ZM601.297 234.461C600.296 232.581 598.74 229.013 598.593 223.455C598.555 218.116 600.702 213.512 601.33 212.559C601.889 213.512 603.739 217.517 603.96 222.992C604.11 228.332 602.331 232.554 601.297 234.461ZM608.555 208.445C608.478 211.85 608.072 215.446 607.553 217.598C607.739 213.893 607.294 208.69 606.443 204.604C605.592 200.545 603.182 193.734 601.259 190.602C599.482 193.598 597.294 199.482 596.148 204.577C594.997 209.671 594.964 215.855 594.964 217.707C594.658 216.154 593.895 210.57 594.11 204.985C594.29 200.381 595.371 195.614 595.963 193.435C598.222 186.161 600.779 181.503 601.259 180.767C601.739 181.503 604.959 187.251 606.628 193.271C608.29 199.292 608.626 205.067 608.555 208.445Z" fill="white" fill-opacity="0.5"/>
<path d="M604.753 238.765H589.258V249.144C589.271 249.144 589.282 249.117 589.296 249.117C592.947 245.466 598.867 245.466 602.521 249.117C606.172 252.74 606.172 258.652 602.521 262.302C602.504 262.329 602.488 262.329 602.472 262.356C602.453 262.356 602.434 262.384 602.417 262.411C598.775 266.007 594.016 267.805 589.258 267.805C584.477 267.805 579.697 266.007 576.052 262.356C569.623 255.955 568.862 246.011 573.762 238.765C574.423 237.784 575.184 236.858 576.052 235.986C579.697 232.336 584.477 230.538 589.258 230.538V205.584C570.889 205.584 556 220.431 556 238.765C556 257.099 570.889 271.973 589.258 271.973C598.835 271.973 607.462 267.914 613.53 261.457V238.765H604.753Z" fill="white" fill-opacity="0.5"/>
<path d="M339.771 238.765H352.464V242.906H346.426V272H339.771V238.765Z" fill="white" fill-opacity="0.5"/>
<path d="M359.993 259.523L361.133 242.906H361.515L362.656 259.523H359.993ZM352.623 272H359.139L359.755 263.174H362.893L363.512 272H370.025L366.555 238.765H356.094L352.623 272Z" fill="white" fill-opacity="0.5"/>
<path d="M379.554 260.368V266.633C379.554 267.478 380.208 267.723 380.59 267.723C381.218 267.723 381.654 267.205 381.654 266.633V258.897C381.654 257.861 381.463 256.717 378.981 256.717H376.279V253.067H379.09C380.972 253.067 381.654 252.631 381.654 250.588V243.995C381.654 243.423 381.218 242.906 380.59 242.906C380.208 242.906 379.554 243.124 379.554 243.995V249.416H372.896V244.704C372.896 242.388 373.169 238.765 377.835 238.765H383.346C388.012 238.765 388.312 242.388 388.312 244.704V250.016C388.312 253.639 385.774 254.62 383.783 254.538V254.865C388.257 254.756 388.312 258.188 388.312 259.36V266.061C388.312 268.404 388.012 272 383.346 272H377.835C373.169 272 372.896 268.404 372.896 266.061V260.368H379.554Z" fill="white" fill-opacity="0.5"/>
<path d="M392.678 238.765H408.094V272H401.437V242.906H399.336V272H392.678V238.765Z" fill="white" fill-opacity="0.5"/>
<path d="M419.118 257.044V242.906H419.991C420.7 242.906 421.219 243.505 421.219 244.567V255.382C421.219 256.445 420.7 257.044 419.991 257.044H419.118ZM412.46 272H419.118V260.695H422.938C427.576 260.695 427.876 257.099 427.876 254.756V244.704C427.876 242.388 427.576 238.765 422.938 238.765H412.46V272Z" fill="white" fill-opacity="0.5"/>
<path d="M441.001 266.633C441.001 267.205 440.564 267.723 439.937 267.723C439.555 267.723 438.9 267.478 438.9 266.633V243.995C438.9 243.124 439.555 242.906 439.937 242.906C440.564 242.906 441.001 243.423 441.001 243.995V266.633ZM432.242 266.061C432.242 268.404 432.543 272 437.181 272H442.72C447.358 272 447.658 268.404 447.658 266.061V244.704C447.658 242.388 447.358 238.765 442.72 238.765H437.181C432.543 238.765 432.242 242.388 432.242 244.704V266.061Z" fill="white" fill-opacity="0.5"/>
<path d="M469.323 238.765H478V272H471.342V251.16H471.097L467.659 272H462.338L458.928 251.16H458.682V272H452.025V238.765H460.674L465.012 262.138L469.323 238.765Z" fill="white" fill-opacity="0.5"/>
<path d="M331.147 193.326C329.108 184.418 324.001 177.171 323.297 176C322.184 177.662 318.11 184.064 316.039 191.146C313.777 199.074 313.444 206.102 314.225 212.994C314.999 219.914 317.927 227.024 317.927 227.024C319.482 230.729 321.812 234.733 323.33 236.695C325.553 233.807 330.664 225.199 332.257 213.975C333.144 207.709 333.182 202.234 331.147 193.326ZM323.297 234.461C322.295 232.581 320.74 229.013 320.593 223.455C320.555 218.116 322.702 213.512 323.33 212.559C323.889 213.512 325.739 217.517 325.96 222.992C326.11 228.332 324.331 232.554 323.297 234.461ZM330.555 208.445C330.478 211.85 330.072 215.446 329.553 217.598C329.739 213.893 329.294 208.69 328.443 204.604C327.591 200.545 325.182 193.734 323.259 190.602C321.482 193.598 319.294 199.482 318.148 204.577C316.997 209.671 316.964 215.855 316.964 217.707C316.658 216.154 315.894 210.57 316.11 204.985C316.29 200.381 317.37 195.614 317.963 193.435C320.222 186.161 322.778 181.503 323.259 180.767C323.739 181.503 326.958 187.251 328.628 193.271C330.29 199.292 330.626 205.067 330.555 208.445Z" fill="white" fill-opacity="0.5"/>
<path d="M326.753 238.765H311.258V249.144C311.271 249.144 311.282 249.117 311.296 249.117C314.947 245.466 320.867 245.466 324.521 249.117C328.172 252.74 328.172 258.652 324.521 262.302C324.504 262.329 324.488 262.329 324.472 262.356C324.453 262.356 324.434 262.384 324.417 262.411C320.775 266.007 316.016 267.805 311.258 267.805C306.477 267.805 301.697 266.007 298.052 262.356C291.623 255.955 290.862 246.011 295.762 238.765C296.423 237.784 297.184 236.858 298.052 235.986C301.697 232.336 306.477 230.538 311.258 230.538V205.584C292.889 205.584 278 220.431 278 238.765C278 257.099 292.889 271.973 311.258 271.973C320.835 271.973 329.462 267.914 335.53 261.457V238.765H326.753Z" fill="white" fill-opacity="0.5"/>
<path d="M895.771 238.765H908.464V242.906H902.426V272H895.771V238.765Z" fill="white" fill-opacity="0.5"/>
<path d="M915.993 259.523L917.133 242.906H917.515L918.656 259.523H915.993ZM908.623 272H915.139L915.755 263.174H918.893L919.512 272H926.025L922.555 238.765H912.094L908.623 272Z" fill="white" fill-opacity="0.5"/>
<path d="M935.554 260.368V266.633C935.554 267.478 936.208 267.723 936.59 267.723C937.218 267.723 937.654 267.205 937.654 266.633V258.897C937.654 257.861 937.463 256.717 934.981 256.717H932.279V253.067H935.09C936.972 253.067 937.654 252.631 937.654 250.588V243.995C937.654 243.423 937.218 242.906 936.59 242.906C936.208 242.906 935.554 243.124 935.554 243.995V249.416H928.896V244.704C928.896 242.388 929.169 238.765 933.835 238.765H939.346C944.012 238.765 944.312 242.388 944.312 244.704V250.016C944.312 253.639 941.774 254.62 939.783 254.538V254.865C944.257 254.756 944.312 258.188 944.312 259.36V266.061C944.312 268.404 944.012 272 939.346 272H933.835C929.169 272 928.896 268.404 928.896 266.061V260.368H935.554Z" fill="white" fill-opacity="0.5"/>
<path d="M948.678 238.765H964.094V272H957.437V242.906H955.336V272H948.678V238.765Z" fill="white" fill-opacity="0.5"/>
<path d="M975.118 257.044V242.906H975.991C976.7 242.906 977.219 243.505 977.219 244.567V255.382C977.219 256.445 976.7 257.044 975.991 257.044H975.118ZM968.46 272H975.118V260.695H978.938C983.576 260.695 983.876 257.099 983.876 254.756V244.704C983.876 242.388 983.576 238.765 978.938 238.765H968.46V272Z" fill="white" fill-opacity="0.5"/>
<path d="M997.001 266.633C997.001 267.205 996.564 267.723 995.937 267.723C995.555 267.723 994.9 267.478 994.9 266.633V243.995C994.9 243.124 995.555 242.906 995.937 242.906C996.564 242.906 997.001 243.423 997.001 243.995V266.633ZM988.242 266.061C988.242 268.404 988.543 272 993.181 272H998.72C1003.36 272 1003.66 268.404 1003.66 266.061V244.704C1003.66 242.388 1003.36 238.765 998.72 238.765H993.181C988.543 238.765 988.242 242.388 988.242 244.704V266.061Z" fill="white" fill-opacity="0.5"/>
<path d="M1025.32 238.765H1034V272H1027.34V251.16H1027.1L1023.66 272H1018.34L1014.93 251.16H1014.68V272H1008.02V238.765H1016.67L1021.01 262.138L1025.32 238.765Z" fill="white" fill-opacity="0.5"/>
<path d="M887.147 193.326C885.109 184.418 880.001 177.171 879.297 176C878.184 177.662 874.11 184.064 872.039 191.146C869.777 199.074 869.444 206.102 870.225 212.994C871 219.914 873.927 227.024 873.927 227.024C875.482 230.729 877.813 234.733 879.33 236.695C881.553 233.807 886.664 225.199 888.257 213.975C889.144 207.709 889.182 202.234 887.147 193.326ZM879.297 234.461C878.296 232.581 876.74 229.013 876.593 223.455C876.555 218.116 878.702 213.512 879.33 212.559C879.889 213.512 881.739 217.517 881.96 222.992C882.11 228.332 880.331 232.554 879.297 234.461ZM886.555 208.445C886.478 211.85 886.072 215.446 885.553 217.598C885.739 213.893 885.294 208.69 884.443 204.604C883.592 200.545 881.182 193.734 879.259 190.602C877.482 193.598 875.294 199.482 874.148 204.577C872.997 209.671 872.964 215.855 872.964 217.707C872.658 216.154 871.895 210.57 872.11 204.985C872.29 200.381 873.371 195.614 873.963 193.435C876.222 186.161 878.779 181.503 879.259 180.767C879.739 181.503 882.959 187.251 884.628 193.271C886.29 199.292 886.626 205.067 886.555 208.445Z" fill="white" fill-opacity="0.5"/>
<path d="M882.753 238.765H867.258V249.144C867.271 249.144 867.282 249.117 867.296 249.117C870.947 245.466 876.867 245.466 880.521 249.117C884.172 252.74 884.172 258.652 880.521 262.302C880.504 262.329 880.488 262.329 880.472 262.356C880.453 262.356 880.434 262.384 880.417 262.411C876.775 266.007 872.016 267.805 867.258 267.805C862.477 267.805 857.697 266.007 854.052 262.356C847.623 255.955 846.862 246.011 851.762 238.765C852.423 237.784 853.184 236.858 854.052 235.986C857.697 232.336 862.477 230.538 867.258 230.538V205.584C848.889 205.584 834 220.431 834 238.765C834 257.099 848.889 271.973 867.258 271.973C876.835 271.973 885.462 267.914 891.53 261.457V238.765H882.753Z" fill="white" fill-opacity="0.5"/>
</svg>
